<svg xmlns="http://www.w3.org/2000/svg" width="66.2" height="66.2" viewBox="0 0 66.2 66.2">
  <g id="Group_1" data-name="Group 1" transform="translate(-156.575 -166.204)">
    <rect id="Rectangle_9" data-name="Rectangle 9" width="66.2" height="66.2" rx="33.1" transform="translate(156.575 166.204)" fill="#2c4251"/>
    <path id="Path_1" data-name="Path 1" d="M544.343,831.536H545.8l.418-1.078-.937-1.423-1.42.4Z" transform="translate(-355.385 -608.233)" fill="#5a7684"/>
    <path id="Path_2" data-name="Path 2" d="M558.71,795.27l.716,1.365a32.616,32.616,0,0,1,10.737-2.788c2.684-.168,7.743.8,9.5,2.441l.681-1.433-2.5-2.372L571.617,791l-9.133,2.313Z" transform="translate(-369.012 -573.332)" fill="#5a7684"/>
    <path id="Path_3" data-name="Path 3" d="M317.377,795.27l-.716,1.365a32.616,32.616,0,0,0-10.737-2.788c-2.684-.168-7.743.8-9.5,2.441l-.681-1.433,2.5-2.372L304.47,791l9.133,2.313Z" transform="translate(-127.702 -573.332)" fill="#5a7684"/>
    <path id="Path_4" data-name="Path 4" d="M558.71,710.848a36.1,36.1,0,0,1,11.051-2.728,19.187,19.187,0,0,1,10.586,2.372v-6.84s-.007-4.675-4.223-4.586-17.414,5.2-17.414,5.2Z" transform="translate(-369.012 -488.969)" fill="#c1e8f2"/>
    <path id="Path_5" data-name="Path 5" d="M317.377,710.848a36.1,36.1,0,0,0-11.051-2.728,19.187,19.187,0,0,0-10.586,2.372v-6.84s.007-4.675,4.223-4.586,17.414,5.2,17.414,5.2Z" transform="translate(-127.702 -488.969)" fill="#c1e8f2"/>
    <path id="Path_6" data-name="Path 6" d="M456.7,363.526v1.051a1.027,1.027,0,0,1-1.027,1.027h-18.76a.587.587,0,0,1-.586-.587v-1.491a.587.587,0,0,1,.586-.587h19.2A.587.587,0,0,1,456.7,363.526Z" transform="translate(-256.712 -180.531)" fill="#f2f2f2"/>
    <rect id="Rectangle_10" data-name="Rectangle 10" width="19.699" height="7.592" rx="3.796" transform="translate(179.955 184.368)" fill="#2c4251"/>
    <path id="Rectangle_11" data-name="Rectangle 11" d="M.969,0h22.3a.969.969,0,0,1,.969.969v0a1.7,1.7,0,0,1-1.7,1.7H.969A.969.969,0,0,1,0,1.7V.969A.969.969,0,0,1,.969,0Z" transform="translate(177.684 188.673)" fill="#f2f2f2"/>
    <rect id="Rectangle_12" data-name="Rectangle 12" width="23.437" height="7.592" rx="3.796" transform="translate(178.086 190.632)" fill="#2c4251"/>
    <rect id="Rectangle_13" data-name="Rectangle 13" width="20.634" height="3.126" rx="1.563" transform="translate(179.357 195.098)" fill="#f2f2f2"/>
    <path id="Path_7" data-name="Path 7" d="M370.811,494.376a37.255,37.255,0,0,1-11.889-2.94q-.914-.393-1.8-.834c.009-.089.019-.178.029-.267a11.694,11.694,0,0,1,2.454-1.105q.31.352.635.688C363.078,492.854,366.694,493.722,370.811,494.376Z" transform="translate(-184.024 -296.418)" fill="#ccc"/>
    <path id="Path_8" data-name="Path 8" d="M593.655,494.575a37.255,37.255,0,0,0,11.889-2.94q.914-.393,1.8-.834c-.009-.089-.019-.178-.029-.267a11.7,11.7,0,0,0-2.454-1.105q-.31.352-.635.688C601.388,493.053,597.772,493.921,593.655,494.575Z" transform="translate(-401.078 -296.601)" fill="#ccc"/>
    <path id="Path_9" data-name="Path 9" d="M389.942,545.815q0,.35-.015.7a10.517,10.517,0,0,1-.232,2.311s-.018.024-.051.071c-3.312.2-12.79.753-16.382.753-3.611,0-13.139-.553-16.463-.753l-.012-.016-.009-.012c0-.007,0-.013,0-.02a16.729,16.729,0,0,1-.26-2.334q-.015-.346-.015-.7a16.709,16.709,0,0,1,.4-3.638,44.04,44.04,0,0,0,32.65.013A16.739,16.739,0,0,1,389.942,545.815Z" transform="translate(-183.458 -345.004)" fill="#2c4251"/>
    <path id="Path_10" data-name="Path 10" d="M526.285,631.042c-1.061,2.316-3.038,13.957-3.175,14.772a.184.184,0,0,1-.043,0c-.132-.781-2.115-12.462-3.177-14.778,1.285.047,2.407.075,3.225.075S525.022,631.087,526.285,631.042Z" transform="translate(-333.389 -426.548)" fill="#2c4251"/>
    <path id="Path_11" data-name="Path 11" d="M368.768,622.726c1.062,2.316,3.045,14,3.177,14.778a.182.182,0,0,1-.037,0c-3.989-.812-6.38-1.38-9.1-3.085a29.941,29.941,0,0,0-6.417-3.168.208.208,0,0,1-.146-.226c.358-2.778-.75-7.6-1.033-8.762a.21.21,0,0,1,.2-.26h.089c0,.007,0,.013,0,.02l.009.012.012.016C358.1,622.2,364.383,622.568,368.768,622.726Z" transform="translate(-182.271 -418.252)" fill="#f2f2f2"/>
    <line id="Line_1" data-name="Line 1" x1="0.041" transform="translate(206.196 203.624)" fill="none" stroke="#e7a900" stroke-miterlimit="10" stroke-width="3"/>
    <path id="Path_12" data-name="Path 12" d="M559.427,809.041s0-.014-.007-.041" transform="translate(-369.663 -589.849)" fill="#e7a900"/>
    <path id="Path_13" data-name="Path 13" d="M598.491,629.59v0" transform="translate(-405.515 -425.217)" fill="#e7a900"/>
    <path id="Path_14" data-name="Path 14" d="M389.36,507.752c0,.261-.005.521-.016.779q-.6.279-1.214.538a39.6,39.6,0,0,1-30.9-.013q-.614-.261-1.218-.541-.015-.379-.016-.763,0-.944.092-1.862.89.441,1.8.834a37.257,37.257,0,0,0,11.889,2.94,18.55,18.55,0,0,0,5.822,0,37.257,37.257,0,0,0,11.86-2.927q.912-.392,1.8-.83Q389.359,506.816,389.36,507.752Z" transform="translate(-182.999 -311.706)" fill="#f2f2f2"/>
    <path id="Path_15" data-name="Path 15" d="M552.041,260.088H550.52s.094-8.441.74-9.232C551.85,251.493,552.041,260.088,552.041,260.088Z" transform="translate(-361.496 -77.679)" fill="#f2f2f2"/>
    <path id="Path_16" data-name="Path 16" d="M575.63,622.26c-.284,1.166-1.393,5.994-1.031,8.771a.209.209,0,0,1-.143.225,29.782,29.782,0,0,0-6.422,3.16c-2.588,1.646-8.523,2.983-9.087,3.107h-.007c.138-.815,2.115-12.456,3.175-14.772,4.364-.157,10.642-.525,13.211-.68.033-.047.051-.071.051-.071h.048A.21.21,0,0,1,575.63,622.26Z" transform="translate(-369.223 -418.252)" fill="#f2f2f2"/>
  </g>
</svg>
